<svg width="342" height="119" viewBox="0 0 342 119" fill="none" xmlns="http://www.w3.org/2000/svg">
<path d="M16.432 48.72C13.36 48.72 10.48 48.48 7.792 48C5.152 47.568 2.872 46.92 0.952 46.056V36.192C3.064 37.104 5.392 37.848 7.936 38.424C10.528 39 12.976 39.288 15.28 39.288C18.16 39.288 20.296 39.024 21.688 38.496C23.128 37.968 23.848 36.816 23.848 35.04C23.848 33.84 23.488 32.88 22.768 32.16C22.096 31.44 20.968 30.816 19.384 30.288C17.848 29.712 15.736 29.04 13.048 28.272C9.88 27.312 7.36 26.256 5.488 25.104C3.616 23.904 2.272 22.464 1.456 20.784C0.64 19.104 0.232 17.04 0.232 14.592C0.232 10.176 1.816 6.792 4.984 4.44C8.152 2.088 12.832 0.911997 19.024 0.911997C21.712 0.911997 24.328 1.128 26.872 1.56C29.416 1.944 31.48 2.4 33.064 2.928V12.864C31 12.048 28.912 11.448 26.8 11.064C24.736 10.68 22.72 10.488 20.752 10.488C18.16 10.488 16.048 10.728 14.416 11.208C12.832 11.688 12.04 12.792 12.04 14.52C12.04 15.528 12.328 16.344 12.904 16.968C13.48 17.544 14.464 18.072 15.856 18.552C17.296 19.032 19.24 19.608 21.688 20.28C25.48 21.288 28.384 22.512 30.4 23.952C32.416 25.344 33.808 26.976 34.576 28.848C35.344 30.672 35.728 32.736 35.728 35.04C35.728 39.12 34.144 42.432 30.976 44.976C27.808 47.472 22.96 48.72 16.432 48.72ZM41.6095 48V13.872H52.3375L52.6975 16.896C54.2335 15.792 55.9615 14.904 57.8815 14.232C59.8015 13.512 61.8655 13.152 64.0735 13.152C66.3775 13.152 68.1775 13.512 69.4735 14.232C70.7695 14.904 71.7775 15.864 72.4975 17.112C74.0815 15.96 75.8575 15.024 77.8255 14.304C79.8415 13.536 82.1935 13.152 84.8815 13.152C88.8655 13.152 91.7935 14.184 93.6655 16.248C95.5375 18.312 96.4735 21.456 96.4735 25.68V48H85.0255V27.048C85.0255 25.176 84.6175 23.832 83.8015 23.016C83.0335 22.152 81.7615 21.72 79.9855 21.72C78.8815 21.72 77.8015 21.96 76.7455 22.44C75.6895 22.872 74.8015 23.496 74.0815 24.312C74.1775 24.84 74.2255 25.344 74.2255 25.824C74.2735 26.304 74.2975 26.88 74.2975 27.552V48H63.4975V26.904C63.4975 25.176 63.1855 23.88 62.5615 23.016C61.9855 22.152 60.8575 21.72 59.1775 21.72C57.9775 21.72 56.8495 22.032 55.7935 22.656C54.7375 23.28 53.7775 24 52.9135 24.816V48H41.6095ZM113.086 48.72C110.926 48.72 108.91 48.336 107.038 47.568C105.214 46.8 103.75 45.624 102.646 44.04C101.542 42.408 100.99 40.392 100.99 37.992C100.99 34.488 102.166 31.752 104.518 29.784C106.918 27.768 110.494 26.76 115.246 26.76H124.75V25.968C124.75 24.24 124.174 23.016 123.022 22.296C121.87 21.528 119.71 21.144 116.542 21.144C112.654 21.144 108.838 21.744 105.094 22.944V15.456C106.774 14.784 108.814 14.232 111.214 13.8C113.662 13.368 116.23 13.152 118.918 13.152C124.198 13.152 128.326 14.232 131.302 16.392C134.326 18.552 135.838 21.984 135.838 26.688V48H125.686L125.11 45.12C123.862 46.272 122.254 47.16 120.286 47.784C118.366 48.408 115.966 48.72 113.086 48.72ZM116.758 41.592C118.582 41.592 120.166 41.28 121.51 40.656C122.854 40.032 123.934 39.24 124.75 38.28V33.456H116.542C113.134 33.456 111.43 34.824 111.43 37.56C111.43 38.808 111.862 39.792 112.726 40.512C113.59 41.232 114.934 41.592 116.758 41.592ZM142.789 48V13.872H153.805L154.165 17.04C155.653 16.128 157.501 15.312 159.709 14.592C161.917 13.824 164.125 13.344 166.333 13.152V21.864C165.085 22.008 163.693 22.248 162.157 22.584C160.669 22.872 159.229 23.232 157.837 23.664C156.493 24.096 155.341 24.552 154.381 25.032V48H142.789ZM184.743 48.72C180.519 48.72 177.399 47.64 175.383 45.48C173.415 43.32 172.431 40.344 172.431 36.552V22.656H167.823V13.872H172.431V6.744L184.023 3.648V13.872H192.303L191.799 22.656H184.023V35.76C184.023 37.392 184.431 38.544 185.247 39.216C186.063 39.84 187.287 40.152 188.919 40.152C190.311 40.152 191.727 39.912 193.167 39.432V47.28C190.911 48.24 188.103 48.72 184.743 48.72Z" fill="#006BBB"/>
<path d="M25.144 118.72C17.032 118.72 10.84 116.656 6.568 112.528C2.344 108.352 0.232 102.568 0.232 95.176C0.232 87.448 2.296 81.472 6.424 77.248C10.6 73.024 16.816 70.912 25.072 70.912C27.904 70.912 30.424 71.128 32.632 71.56C34.888 71.992 37.048 72.568 39.112 73.288V83.44C34.936 81.712 30.544 80.848 25.936 80.848C21.136 80.848 17.608 82 15.352 84.304C13.144 86.608 12.04 90.232 12.04 95.176C12.04 99.88 13.216 103.336 15.568 105.544C17.92 107.752 21.424 108.856 26.08 108.856C28.336 108.856 30.568 108.664 32.776 108.28C34.984 107.848 37.12 107.2 39.184 106.336V116.56C37.168 117.232 35.032 117.76 32.776 118.144C30.52 118.528 27.976 118.72 25.144 118.72ZM55.5668 118.72C51.8228 118.72 49.1348 117.904 47.5028 116.272C45.8708 114.64 45.0548 112.024 45.0548 108.424V69.472H56.6468V107.272C56.6468 108.376 56.8628 109.144 57.2948 109.576C57.7748 109.96 58.4708 110.152 59.3828 110.152C60.6788 110.152 61.8308 109.984 62.8388 109.648V117.496C61.7348 117.928 60.6308 118.24 59.5268 118.432C58.4708 118.624 57.1508 118.72 55.5668 118.72ZM77.8593 118.72C75.6993 118.72 73.6833 118.336 71.8113 117.568C69.9873 116.8 68.5233 115.624 67.4193 114.04C66.3153 112.408 65.7633 110.392 65.7633 107.992C65.7633 104.488 66.9393 101.752 69.2913 99.784C71.6913 97.768 75.2673 96.76 80.0193 96.76H89.5233V95.968C89.5233 94.24 88.9473 93.016 87.7953 92.296C86.6433 91.528 84.4833 91.144 81.3153 91.144C77.4273 91.144 73.6113 91.744 69.8673 92.944V85.456C71.5473 84.784 73.5873 84.232 75.9873 83.8C78.4353 83.368 81.0033 83.152 83.6913 83.152C88.9713 83.152 93.0993 84.232 96.0753 86.392C99.0993 88.552 100.611 91.984 100.611 96.688V118H90.4593L89.8833 115.12C88.6353 116.272 87.0273 117.16 85.0593 117.784C83.1393 118.408 80.7393 118.72 77.8593 118.72ZM81.5312 111.592C83.3553 111.592 84.9393 111.28 86.2833 110.656C87.6273 110.032 88.7073 109.24 89.5233 108.28V103.456H81.3153C77.9073 103.456 76.2033 104.824 76.2033 107.56C76.2033 108.808 76.6353 109.792 77.4993 110.512C78.3633 111.232 79.7073 111.592 81.5312 111.592ZM120.235 118.72C117.499 118.72 114.907 118.528 112.459 118.144C110.011 117.76 108.067 117.28 106.627 116.704V107.848C108.307 108.568 110.251 109.12 112.459 109.504C114.667 109.888 116.635 110.08 118.363 110.08C120.427 110.08 121.915 109.984 122.827 109.792C123.787 109.6 124.267 109.072 124.267 108.208C124.267 107.248 123.499 106.528 121.963 106.048C120.427 105.568 118.315 104.872 115.627 103.96C112.507 102.856 110.131 101.584 108.499 100.144C106.915 98.656 106.123 96.472 106.123 93.592C106.123 90.232 107.371 87.664 109.867 85.888C112.411 84.064 116.443 83.152 121.963 83.152C124.123 83.152 126.259 83.32 128.371 83.656C130.483 83.992 132.211 84.376 133.555 84.808V93.52C132.211 92.896 130.675 92.44 128.947 92.152C127.219 91.864 125.659 91.72 124.267 91.72C122.491 91.72 120.979 91.84 119.731 92.08C118.531 92.272 117.931 92.776 117.931 93.592C117.931 94.504 118.603 95.152 119.947 95.536C121.291 95.872 123.235 96.448 125.779 97.264C128.467 98.08 130.555 98.968 132.043 99.928C133.531 100.84 134.587 101.944 135.211 103.24C135.835 104.536 136.147 106.168 136.147 108.136C136.147 111.544 134.803 114.16 132.115 115.984C129.427 117.808 125.467 118.72 120.235 118.72ZM152.86 118.72C150.124 118.72 147.532 118.528 145.084 118.144C142.636 117.76 140.692 117.28 139.252 116.704V107.848C140.932 108.568 142.876 109.12 145.084 109.504C147.292 109.888 149.26 110.08 150.988 110.08C153.052 110.08 154.54 109.984 155.452 109.792C156.412 109.6 156.892 109.072 156.892 108.208C156.892 107.248 156.124 106.528 154.588 106.048C153.052 105.568 150.94 104.872 148.252 103.96C145.132 102.856 142.756 101.584 141.124 100.144C139.54 98.656 138.748 96.472 138.748 93.592C138.748 90.232 139.996 87.664 142.492 85.888C145.036 84.064 149.068 83.152 154.588 83.152C156.748 83.152 158.884 83.32 160.996 83.656C163.108 83.992 164.836 84.376 166.18 84.808V93.52C164.836 92.896 163.3 92.44 161.572 92.152C159.844 91.864 158.284 91.72 156.892 91.72C155.116 91.72 153.604 91.84 152.356 92.08C151.156 92.272 150.556 92.776 150.556 93.592C150.556 94.504 151.228 95.152 152.572 95.536C153.916 95.872 155.86 96.448 158.404 97.264C161.092 98.08 163.18 98.968 164.668 99.928C166.156 100.84 167.212 101.944 167.836 103.24C168.46 104.536 168.772 106.168 168.772 108.136C168.772 111.544 167.428 114.16 164.74 115.984C162.052 117.808 158.092 118.72 152.86 118.72ZM174.641 118V83.872H185.657L186.017 87.04C187.505 86.128 189.353 85.312 191.561 84.592C193.769 83.824 195.977 83.344 198.185 83.152V91.864C196.937 92.008 195.545 92.248 194.009 92.584C192.521 92.872 191.081 93.232 189.689 93.664C188.345 94.096 187.193 94.552 186.233 95.032V118H174.641ZM218.933 118.72C212.357 118.72 207.509 117.208 204.389 114.184C201.269 111.112 199.709 106.696 199.709 100.936C199.709 95.224 201.269 90.832 204.389 87.76C207.557 84.688 212.405 83.152 218.933 83.152C225.509 83.152 230.357 84.688 233.477 87.76C236.645 90.832 238.229 95.224 238.229 100.936C238.229 106.696 236.669 111.112 233.549 114.184C230.429 117.208 225.557 118.72 218.933 118.72ZM218.933 109.648C221.621 109.648 223.541 108.976 224.693 107.632C225.845 106.288 226.421 104.056 226.421 100.936C226.421 97.816 225.845 95.584 224.693 94.24C223.541 92.896 221.621 92.224 218.933 92.224C216.293 92.224 214.397 92.896 213.245 94.24C212.093 95.584 211.517 97.816 211.517 100.936C211.517 104.056 212.093 106.288 213.245 107.632C214.397 108.976 216.293 109.648 218.933 109.648ZM261.894 118.72C255.318 118.72 250.47 117.208 247.35 114.184C244.23 111.112 242.67 106.696 242.67 100.936C242.67 95.224 244.23 90.832 247.35 87.76C250.518 84.688 255.366 83.152 261.894 83.152C268.47 83.152 273.318 84.688 276.438 87.76C279.606 90.832 281.19 95.224 281.19 100.936C281.19 106.696 279.63 111.112 276.51 114.184C273.39 117.208 268.518 118.72 261.894 118.72ZM261.894 109.648C264.582 109.648 266.502 108.976 267.654 107.632C268.806 106.288 269.382 104.056 269.382 100.936C269.382 97.816 268.806 95.584 267.654 94.24C266.502 92.896 264.582 92.224 261.894 92.224C259.254 92.224 257.358 92.896 256.206 94.24C255.054 95.584 254.478 97.816 254.478 100.936C254.478 104.056 255.054 106.288 256.206 107.632C257.358 108.976 259.254 109.648 261.894 109.648ZM287.07 118V83.872H297.798L298.158 86.896C299.694 85.792 301.422 84.904 303.342 84.232C305.262 83.512 307.326 83.152 309.534 83.152C311.838 83.152 313.638 83.512 314.934 84.232C316.23 84.904 317.238 85.864 317.958 87.112C319.542 85.96 321.318 85.024 323.286 84.304C325.302 83.536 327.654 83.152 330.342 83.152C334.326 83.152 337.254 84.184 339.126 86.248C340.998 88.312 341.934 91.456 341.934 95.68V118H330.486V97.048C330.486 95.176 330.078 93.832 329.262 93.016C328.494 92.152 327.222 91.72 325.446 91.72C324.342 91.72 323.262 91.96 322.206 92.44C321.15 92.872 320.262 93.496 319.542 94.312C319.638 94.84 319.686 95.344 319.686 95.824C319.734 96.304 319.758 96.88 319.758 97.552V118H308.958V96.904C308.958 95.176 308.646 93.88 308.022 93.016C307.446 92.152 306.318 91.72 304.638 91.72C303.438 91.72 302.31 92.032 301.254 92.656C300.198 93.28 299.238 94 298.374 94.816V118H287.07Z" fill="#FFC872"/>
</svg>
